<svg width="320" height="220" viewBox="0 0 320 220" fill="none" xmlns="http://www.w3.org/2000/svg" role="img" aria-labelledby="title desc">
  <title id="title">Hive Service Control</title>
  <desc id="desc">Hexagono dorado con escudo, check y texto Hive Service Control.</desc>
  <defs>
    <filter id="softShadow" x="-20%" y="-20%" width="140%" height="140%">
      <feDropShadow dx="0" dy="10" stdDeviation="10" flood-color="#111827" flood-opacity="0.08"/>
    </filter>
    <linearGradient id="goldLine" x1="68" y1="24" x2="252" y2="198" gradientUnits="userSpaceOnUse">
      <stop stop-color="#F5B12A"/>
      <stop offset="0.5" stop-color="#F2A51A"/>
      <stop offset="1" stop-color="#E49A12"/>
    </linearGradient>
  </defs>

  <rect width="320" height="220" fill="white"/>
  <g filter="url(#softShadow)">
    <path
      d="M107.5 25.5H212.5C218.4 25.5 223.8 28.7 226.7 33.9L279.2 126.1C282.1 131.3 282.1 137.7 279.2 142.9L226.7 235.1C223.8 240.3 218.4 243.5 212.5 243.5H107.5C101.6 243.5 96.2 240.3 93.3 235.1L40.8 142.9C37.9 137.7 37.9 131.3 40.8 126.1L93.3 33.9C96.2 28.7 101.6 25.5 107.5 25.5Z"
      transform="translate(0 -24)"
      fill="white"
      stroke="url(#goldLine)"
      stroke-width="1.6"
    />
  </g>

  <g transform="translate(128 54)">
    <path
      d="M32 3.5L50 10.5V25.2C50 45.1 37.9 56.5 32 59.5C26.1 56.5 14 45.1 14 25.2V10.5L32 3.5Z"
      fill="white"
      stroke="#111827"
      stroke-width="3"
      stroke-linejoin="round"
    />
    <path d="M24 29.5L30 35.5L42 22.5" stroke="#F2A51A" stroke-width="3" stroke-linecap="round" stroke-linejoin="round"/>
  </g>

  <g fill="#10141D" font-family="Inter, Arial, Helvetica, sans-serif" text-anchor="middle">
    <text x="160" y="137" font-size="23" font-weight="700" letter-spacing="-0.5">Hive Service</text>
    <text x="160" y="162" font-size="23" font-weight="700" letter-spacing="-0.5">Control</text>
  </g>

  <circle cx="160" cy="211" r="6.5" fill="white" stroke="#F2A51A" stroke-width="2"/>
</svg>
